<svg xmlns="http://www.w3.org/2000/svg" viewBox="0 0 851 315">
<path d="M 782,144 L 781,145 L 780,145 L 780,146 L 779,147 L 779,148 L 781,148 L 783,146 L 785,146 L 787,148 L 787,149 L 786,150 L 781,150 L 780,151 L 779,151 L 779,156 L 780,157 L 785,157 L 786,156 L 787,157 L 789,157 L 789,146 L 787,144 Z" fill="black" />
<path d="M 766,144 L 766,146 L 771,146 L 772,147 L 771,148 L 771,149 L 768,152 L 768,153 L 766,155 L 766,157 L 776,157 L 776,155 L 771,155 L 770,154 L 771,153 L 771,152 L 774,149 L 774,148 L 776,146 L 776,144 Z" fill="black" />
<path d="M 752,144 L 752,157 L 755,157 L 755,147 L 756,146 L 759,146 L 761,148 L 761,157 L 763,157 L 763,147 L 762,146 L 762,145 L 761,144 L 756,144 L 755,145 L 754,144 Z" fill="black" />
<path d="M 601,144 L 599,146 L 599,147 L 598,148 L 598,153 L 599,154 L 599,155 L 601,157 L 607,157 L 608,156 L 609,156 L 608,155 L 608,154 L 607,155 L 605,155 L 604,156 L 603,155 L 602,155 L 601,154 L 601,153 L 600,152 L 601,151 L 609,151 L 609,147 L 608,146 L 608,145 L 607,145 L 606,144 Z" fill="black" />
<path d="M 587,144 L 586,145 L 585,145 L 585,146 L 584,147 L 584,154 L 585,155 L 585,156 L 586,157 L 592,157 L 593,158 L 590,161 L 589,161 L 588,160 L 586,160 L 585,161 L 586,162 L 593,162 L 594,161 L 594,160 L 595,159 L 595,144 L 593,144 L 592,145 L 591,144 Z" fill="black" />
<path d="M 568,144 L 567,145 L 566,145 L 565,146 L 565,148 L 564,149 L 564,153 L 565,154 L 565,155 L 567,157 L 574,157 L 575,156 L 575,155 L 574,154 L 573,155 L 572,155 L 571,156 L 570,156 L 567,153 L 567,152 L 568,151 L 575,151 L 575,147 L 574,146 L 574,145 L 573,144 Z" fill="black" />
<path d="M 551,144 L 551,155 L 553,157 L 561,157 L 561,144 L 559,144 L 559,154 L 558,155 L 557,155 L 556,156 L 555,155 L 554,155 L 553,154 L 553,144 Z" fill="black" />
<path d="M 539,144 L 537,146 L 537,147 L 536,148 L 536,154 L 537,155 L 537,156 L 538,157 L 544,157 L 545,158 L 545,162 L 547,162 L 547,144 L 545,144 L 544,145 L 543,144 Z" fill="black" />
<path d="M 519,144 L 518,145 L 518,146 L 517,147 L 517,149 L 519,151 L 521,151 L 522,152 L 524,152 L 525,153 L 525,154 L 524,155 L 523,155 L 522,156 L 521,155 L 520,155 L 519,154 L 519,153 L 517,153 L 517,155 L 519,157 L 525,157 L 526,156 L 527,156 L 527,152 L 525,150 L 522,150 L 520,148 L 520,147 L 521,146 L 523,146 L 525,148 L 527,148 L 527,146 L 525,144 Z" fill="black" />
<path d="M 507,144 L 506,145 L 505,145 L 505,146 L 504,147 L 504,155 L 506,157 L 513,157 L 514,156 L 514,155 L 513,154 L 512,155 L 511,155 L 510,156 L 509,156 L 506,153 L 506,152 L 507,151 L 514,151 L 514,146 L 512,144 Z" fill="black" />
<path d="M 487,144 L 486,145 L 485,145 L 485,146 L 484,147 L 484,148 L 486,148 L 488,146 L 490,146 L 492,148 L 492,149 L 491,150 L 486,150 L 485,151 L 484,151 L 484,156 L 485,157 L 490,157 L 491,156 L 492,157 L 494,157 L 494,146 L 492,144 Z" fill="black" />
<path d="M 470,144 L 470,157 L 472,157 L 472,148 L 474,146 L 477,146 L 478,147 L 478,157 L 480,157 L 480,146 L 478,144 L 474,144 L 473,145 L 472,144 Z" fill="black" />
<path d="M 458,144 L 456,146 L 456,147 L 455,148 L 455,153 L 456,154 L 456,155 L 458,157 L 464,157 L 466,155 L 466,153 L 467,152 L 467,149 L 466,148 L 466,146 L 465,145 L 464,145 L 463,144 Z" fill="black" />
<path d="M 450,144 L 450,157 L 452,157 L 452,144 Z" fill="black" />
<path d="M 438,144 L 436,146 L 436,149 L 438,151 L 440,151 L 441,152 L 442,152 L 444,154 L 443,155 L 442,155 L 441,156 L 440,155 L 439,155 L 438,154 L 438,153 L 436,153 L 436,155 L 438,157 L 444,157 L 446,155 L 446,152 L 445,151 L 444,151 L 443,150 L 441,150 L 440,149 L 439,149 L 438,148 L 440,146 L 442,146 L 444,148 L 446,148 L 446,147 L 445,146 L 445,145 L 444,144 Z" fill="black" />
<path d="M 426,144 L 425,145 L 424,145 L 424,146 L 423,147 L 423,155 L 425,157 L 432,157 L 433,156 L 433,155 L 432,154 L 431,155 L 430,155 L 429,156 L 428,156 L 425,153 L 425,152 L 426,151 L 433,151 L 433,146 L 431,144 Z" fill="black" />
<path d="M 403,144 L 400,147 L 400,154 L 401,155 L 401,156 L 402,156 L 403,157 L 409,157 L 410,156 L 410,155 L 411,154 L 411,147 L 410,146 L 410,145 L 409,145 L 408,144 Z" fill="black" />
<path d="M 392,144 L 392,157 L 394,157 L 394,148 L 396,146 L 398,146 L 398,144 L 396,144 L 395,145 L 394,144 Z" fill="black" />
<path d="M 377,140 L 377,157 L 379,157 L 379,151 L 380,150 L 386,150 L 387,149 L 388,149 L 388,148 L 389,147 L 389,142 L 387,140 Z" fill="black" />
<path d="M 498,138 L 498,157 L 500,157 L 500,138 Z" fill="black" />
<path d="M 450,138 L 450,140 L 452,140 L 452,138 Z" fill="black" />
<path d="M 418,138 L 416,140 L 416,143 L 415,144 L 414,144 L 414,146 L 415,146 L 416,147 L 416,157 L 418,157 L 418,147 L 419,146 L 421,146 L 421,144 L 419,144 L 418,143 L 418,141 L 419,140 L 421,140 L 421,138 Z" fill="black" />
<path d="M 817,60 L 815,62 L 814,62 L 813,63 L 812,63 L 810,65 L 809,65 L 808,66 L 807,66 L 806,67 L 805,67 L 803,69 L 802,69 L 801,70 L 800,70 L 799,71 L 798,71 L 796,73 L 795,73 L 794,74 L 793,74 L 792,75 L 791,75 L 789,77 L 788,77 L 787,78 L 786,78 L 784,80 L 784,118 L 785,119 L 786,119 L 788,121 L 789,121 L 790,122 L 791,122 L 792,123 L 793,123 L 795,125 L 796,125 L 797,126 L 798,126 L 799,127 L 800,127 L 802,129 L 803,129 L 804,130 L 805,130 L 806,131 L 807,131 L 809,133 L 810,133 L 811,134 L 812,134 L 814,136 L 815,136 L 816,137 L 819,137 L 821,135 L 822,135 L 823,134 L 824,134 L 825,133 L 826,133 L 828,131 L 829,131 L 830,130 L 831,130 L 832,129 L 833,129 L 835,127 L 836,127 L 837,126 L 838,126 L 840,124 L 841,124 L 842,123 L 843,123 L 844,122 L 845,122 L 847,120 L 848,120 L 849,119 L 850,119 L 850,79 L 849,78 L 848,78 L 847,77 L 846,77 L 845,76 L 844,76 L 842,74 L 841,74 L 840,73 L 839,73 L 837,71 L 836,71 L 835,70 L 834,70 L 833,69 L 832,69 L 830,67 L 829,67 L 828,66 L 827,66 L 826,65 L 825,65 L 823,63 L 822,63 L 821,62 L 820,62 L 819,61 L 818,61 Z" fill="black" />
<path d="M 611,60 L 610,61 L 609,61 L 607,63 L 606,63 L 605,64 L 604,64 L 603,65 L 602,65 L 600,67 L 599,67 L 598,68 L 597,68 L 595,70 L 594,70 L 593,71 L 592,71 L 591,72 L 590,72 L 588,74 L 587,74 L 586,75 L 585,75 L 584,76 L 583,76 L 581,78 L 580,78 L 579,79 L 578,79 L 578,118 L 580,120 L 581,120 L 582,121 L 583,121 L 584,122 L 585,122 L 587,124 L 588,124 L 589,125 L 590,125 L 591,126 L 592,126 L 594,128 L 595,128 L 596,129 L 597,129 L 598,130 L 599,130 L 601,132 L 602,132 L 603,133 L 604,133 L 606,135 L 607,135 L 608,136 L 609,136 L 610,137 L 613,137 L 614,138 L 612,140 L 612,178 L 613,179 L 614,179 L 616,181 L 617,181 L 618,182 L 619,182 L 620,183 L 621,183 L 623,185 L 624,185 L 625,186 L 626,186 L 628,188 L 629,188 L 630,189 L 631,189 L 632,190 L 633,190 L 635,192 L 636,192 L 637,193 L 638,193 L 639,194 L 640,194 L 642,196 L 643,196 L 644,197 L 646,197 L 647,198 L 645,200 L 645,237 L 647,239 L 648,239 L 650,241 L 651,241 L 652,242 L 653,242 L 654,243 L 655,243 L 657,245 L 658,245 L 659,246 L 660,246 L 661,247 L 662,247 L 664,249 L 665,249 L 666,250 L 667,250 L 669,252 L 670,252 L 671,253 L 672,253 L 673,254 L 674,254 L 676,256 L 677,256 L 678,257 L 680,257 L 682,255 L 683,255 L 684,254 L 685,254 L 687,252 L 688,252 L 689,251 L 690,251 L 691,250 L 692,250 L 694,248 L 695,248 L 696,247 L 697,247 L 698,246 L 699,246 L 701,244 L 702,244 L 703,243 L 704,243 L 705,242 L 706,242 L 708,240 L 709,240 L 710,239 L 711,239 L 712,238 L 712,199 L 711,198 L 712,197 L 713,197 L 715,199 L 715,238 L 716,239 L 717,239 L 718,240 L 719,240 L 721,242 L 722,242 L 723,243 L 724,243 L 726,245 L 727,245 L 728,246 L 729,246 L 730,247 L 731,247 L 733,249 L 734,249 L 735,250 L 736,250 L 737,251 L 738,251 L 740,253 L 741,253 L 742,254 L 743,254 L 744,255 L 745,255 L 747,257 L 749,257 L 750,258 L 749,259 L 749,297 L 751,299 L 752,299 L 753,300 L 754,300 L 756,302 L 757,302 L 758,303 L 759,303 L 760,304 L 761,304 L 763,306 L 764,306 L 765,307 L 766,307 L 768,309 L 769,309 L 770,310 L 771,310 L 772,311 L 773,311 L 775,313 L 776,313 L 777,314 L 788,314 L 789,313 L 790,313 L 791,312 L 792,312 L 793,311 L 794,311 L 796,309 L 797,309 L 798,308 L 799,308 L 800,307 L 801,307 L 803,305 L 804,305 L 805,304 L 806,304 L 807,303 L 808,303 L 810,301 L 811,301 L 812,300 L 813,300 L 815,298 L 816,298 L 816,259 L 815,258 L 816,257 L 819,257 L 821,255 L 822,255 L 823,254 L 824,254 L 825,253 L 826,253 L 828,251 L 829,251 L 830,250 L 831,250 L 833,248 L 834,248 L 835,247 L 836,247 L 837,246 L 838,246 L 840,244 L 841,244 L 842,243 L 843,243 L 844,242 L 845,242 L 847,240 L 848,240 L 849,239 L 850,239 L 850,198 L 849,198 L 848,197 L 847,197 L 846,196 L 845,196 L 843,194 L 842,194 L 841,193 L 840,193 L 839,192 L 838,192 L 836,190 L 835,190 L 834,189 L 833,189 L 831,187 L 830,187 L 829,186 L 828,186 L 827,185 L 826,185 L 824,183 L 823,183 L 822,182 L 821,182 L 820,181 L 819,181 L 818,180 L 816,180 L 814,182 L 813,182 L 812,183 L 811,183 L 809,185 L 808,185 L 807,186 L 806,186 L 805,187 L 804,187 L 802,189 L 801,189 L 800,190 L 799,190 L 798,191 L 797,191 L 795,193 L 794,193 L 793,194 L 792,194 L 790,196 L 789,196 L 788,197 L 787,197 L 786,198 L 785,198 L 784,199 L 784,238 L 785,239 L 784,240 L 782,240 L 781,239 L 782,238 L 782,199 L 781,199 L 779,197 L 778,197 L 777,196 L 776,196 L 775,195 L 774,195 L 772,193 L 771,193 L 770,192 L 769,192 L 767,190 L 766,190 L 765,189 L 764,189 L 763,188 L 762,188 L 760,186 L 759,186 L 758,185 L 757,185 L 756,184 L 755,184 L 753,182 L 752,182 L 751,181 L 750,181 L 749,180 L 748,180 L 747,179 L 747,158 L 748,157 L 749,157 L 749,147 L 748,146 L 748,145 L 747,144 L 747,139 L 746,139 L 745,138 L 744,138 L 742,136 L 743,135 L 744,135 L 745,136 L 746,136 L 747,137 L 750,137 L 752,135 L 753,135 L 754,134 L 755,134 L 756,133 L 757,133 L 759,131 L 760,131 L 761,130 L 762,130 L 763,129 L 764,129 L 766,127 L 767,127 L 768,126 L 769,126 L 770,125 L 771,125 L 773,123 L 774,123 L 775,122 L 776,122 L 778,120 L 779,120 L 780,119 L 781,119 L 782,118 L 782,80 L 780,78 L 779,78 L 778,77 L 777,77 L 775,75 L 774,75 L 773,74 L 772,74 L 771,73 L 770,73 L 768,71 L 767,71 L 766,70 L 765,70 L 764,69 L 763,69 L 761,67 L 760,67 L 759,66 L 758,66 L 757,65 L 756,65 L 754,63 L 753,63 L 752,62 L 751,62 L 749,60 L 748,60 L 747,61 L 746,61 L 744,63 L 743,63 L 742,64 L 741,64 L 740,65 L 739,65 L 737,67 L 736,67 L 735,68 L 734,68 L 732,70 L 731,70 L 730,71 L 729,71 L 728,72 L 727,72 L 725,74 L 724,74 L 723,75 L 722,75 L 721,76 L 720,76 L 718,78 L 717,78 L 716,79 L 715,79 L 715,118 L 717,120 L 716,121 L 715,121 L 714,120 L 713,120 L 711,122 L 710,122 L 709,123 L 708,123 L 707,124 L 706,124 L 704,126 L 703,126 L 702,127 L 701,127 L 699,129 L 698,129 L 697,130 L 696,130 L 695,131 L 694,131 L 692,133 L 691,133 L 690,134 L 689,134 L 688,135 L 687,135 L 685,137 L 684,137 L 683,138 L 682,138 L 681,139 L 680,139 L 680,178 L 682,180 L 681,181 L 680,181 L 678,179 L 678,139 L 677,139 L 676,138 L 675,138 L 674,137 L 673,137 L 671,135 L 670,135 L 669,134 L 668,134 L 666,132 L 665,132 L 664,131 L 663,131 L 662,130 L 661,130 L 659,128 L 658,128 L 657,127 L 656,127 L 655,126 L 654,126 L 652,124 L 651,124 L 650,123 L 649,123 L 647,121 L 644,121 L 643,120 L 645,118 L 645,79 L 644,79 L 643,78 L 642,78 L 640,76 L 639,76 L 638,75 L 637,75 L 636,74 L 635,74 L 633,72 L 632,72 L 631,71 L 630,71 L 629,70 L 628,70 L 626,68 L 625,68 L 624,67 L 623,67 L 621,65 L 620,65 L 619,64 L 618,64 L 617,63 L 616,63 L 614,61 L 613,61 L 612,60 Z" fill="black" />
<path d="M 781,1 L 779,3 L 778,3 L 777,4 L 776,4 L 775,5 L 774,5 L 772,7 L 771,7 L 770,8 L 769,8 L 768,9 L 767,9 L 765,11 L 764,11 L 763,12 L 762,12 L 760,14 L 759,14 L 758,15 L 757,15 L 756,16 L 755,16 L 753,18 L 752,18 L 751,19 L 750,19 L 750,58 L 752,60 L 753,60 L 754,61 L 755,61 L 756,62 L 757,62 L 759,64 L 760,64 L 761,65 L 762,65 L 764,67 L 765,67 L 766,68 L 767,68 L 768,69 L 769,69 L 771,71 L 772,71 L 773,72 L 774,72 L 775,73 L 776,73 L 778,75 L 779,75 L 780,76 L 781,76 L 782,77 L 784,77 L 785,76 L 786,76 L 788,74 L 789,74 L 790,73 L 791,73 L 793,71 L 794,71 L 795,70 L 796,70 L 797,69 L 798,69 L 800,67 L 801,67 L 802,66 L 803,66 L 804,65 L 805,65 L 807,63 L 808,63 L 809,62 L 810,62 L 812,60 L 813,60 L 814,59 L 815,59 L 816,58 L 816,20 L 814,18 L 813,18 L 812,17 L 811,17 L 809,15 L 808,15 L 807,14 L 806,14 L 805,13 L 804,13 L 802,11 L 801,11 L 800,10 L 799,10 L 798,9 L 797,9 L 795,7 L 794,7 L 793,6 L 792,6 L 791,5 L 790,5 L 788,3 L 787,3 L 786,2 L 785,2 L 784,1 Z" fill="black" />
</svg>